<?xml version="1.0" standalone="no"?>
<!DOCTYPE svg PUBLIC "-//W3C//DTD SVG 20010904//EN"
 "http://www.w3.org/TR/2001/REC-SVG-20010904/DTD/svg10.dtd">
<svg version="1.0" xmlns="http://www.w3.org/2000/svg"
 width="1254.000000pt" height="1254.000000pt" viewBox="0 0 1254.000000 1254.000000"
 preserveAspectRatio="xMidYMid meet">

<g transform="translate(0.000000,1254.000000) scale(0.100000,-0.100000)"
fill="#000000" stroke="none">
<path d="M6065 11630 c4 -6 28 -24 53 -40 l47 -30 -45 0 c-43 0 -130 11 -195
24 -27 6 -26 4 10 -14 l40 -21 -265 4 c-252 4 -263 3 -218 -12 26 -9 50 -19
54 -23 20 -21 -341 -5 -434 19 -51 12 -11 -15 69 -48 96 -40 88 -47 -52 -48
-113 -1 -188 11 -244 40 l-40 21 20 -23 c34 -40 58 -59 110 -86 l50 -26 -64
-18 c-98 -28 -214 -42 -299 -37 -70 5 -74 4 -47 -8 17 -7 47 -16 68 -20 66
-12 51 -24 -30 -24 -142 0 -277 41 -340 102 -64 62 -21 -51 46 -122 22 -24 41
-44 41 -44 0 -1 -19 0 -42 1 l-43 3 48 -25 c26 -14 47 -30 47 -35 0 -19 -112
-1 -151 25 -42 28 -99 99 -99 124 0 9 -3 11 -9 6 -5 -6 -5 -37 -1 -70 7 -62
39 -134 85 -195 25 -34 25 -35 5 -38 -28 -5 -81 30 -134 89 -36 40 -45 46 -49
32 -3 -10 -6 5 -7 32 -2 49 -2 50 -10 15 -15 -61 6 -179 41 -236 10 -17 19
-34 19 -38 0 -17 -105 52 -145 95 -38 41 -45 54 -45 89 0 57 -15 42 -30 -29
-12 -59 -10 -125 8 -208 5 -24 6 -43 1 -43 -11 0 -38 53 -41 77 -1 10 -4 -15
-7 -56 l-6 -75 -30 59 c-16 33 -35 84 -41 115 l-12 55 -1 -57 c-1 -31 8 -85
19 -120 15 -51 16 -59 3 -43 -25 32 -45 86 -52 140 l-7 50 -18 -77 c-16 -70
-16 -82 -2 -157 26 -142 99 -237 229 -301 l62 -29 -50 -1 c-60 0 -150 22 -205
50 -58 29 -52 3 8 -37 63 -42 86 -53 161 -78 l65 -22 -55 -13 c-30 -8 -96 -13
-148 -13 l-94 1 29 -23 c42 -34 137 -80 231 -111 82 -27 93 -37 51 -47 -135
-30 -175 -37 -215 -39 -40 -1 -43 -3 -28 -14 24 -18 113 -28 197 -22 45 4 66
2 60 -4 -6 -6 -46 -13 -89 -17 -70 -6 -76 -8 -55 -19 37 -21 140 -26 210 -9
56 13 63 13 57 -1 -19 -50 -88 -300 -120 -432 -20 -85 -63 -235 -96 -332 -34
-101 -59 -195 -59 -218 0 -62 22 -103 104 -189 93 -97 107 -135 80 -211 -10
-28 -58 -108 -106 -178 -312 -453 -348 -515 -348 -589 0 -102 48 -145 241
-217 78 -29 118 -49 131 -67 19 -25 19 -29 4 -108 -30 -158 -19 -211 58 -277
l47 -40 -17 -64 c-22 -86 -14 -152 26 -205 92 -124 107 -185 90 -390 -9 -123
-4 -206 16 -260 17 -46 69 -109 113 -136 130 -83 267 -88 681 -23 58 9 148 17
200 18 83 1 100 -2 137 -23 64 -37 79 -78 93 -251 17 -219 29 -261 135 -445
29 -49 66 -117 82 -150 47 -92 162 -388 178 -457 17 -74 30 -62 -162 -159
-218 -109 -269 -166 -292 -321 -6 -42 -19 -99 -29 -126 -19 -49 -140 -257
-302 -517 -48 -77 -139 -223 -202 -325 -361 -581 -545 -998 -687 -1558 -103
-403 -136 -651 -176 -1302 -8 -135 -17 -280 -19 -322 l-5 -78 3563 0 3563 0 7
133 c24 487 16 1121 -19 1507 -41 444 -197 1151 -329 1493 -132 341 -271 535
-665 927 -237 236 -612 568 -927 820 -265 213 -368 308 -461 427 -36 46 -73
88 -83 93 -10 5 -56 14 -102 19 -98 11 -105 17 -188 167 -100 180 -205 462
-269 721 -61 246 -71 367 -47 558 17 127 26 166 26 110 0 -44 9 -25 36 76 32
122 143 461 155 474 5 5 9 -3 9 -20 1 -20 17 15 49 100 26 72 81 207 123 300
82 184 141 354 187 535 28 112 29 114 30 61 1 -30 4 -51 8 -48 3 4 21 67 40
140 29 115 52 239 104 555 6 39 15 72 20 72 4 0 11 -42 15 -92 7 -82 9 -88 15
-53 4 22 9 112 9 200 2 149 3 157 15 115 l13 -45 1 44 c1 25 -6 82 -15 129
-18 95 -13 118 9 45 l15 -48 1 49 c3 124 -47 359 -95 445 -13 24 -23 46 -21
48 3 2 30 -24 61 -57 31 -34 56 -56 56 -50 0 20 -71 201 -116 294 -50 106
-133 211 -205 263 -27 19 -48 38 -45 40 8 8 103 -27 130 -48 36 -29 32 -14
-10 38 -72 88 -217 172 -325 188 l-45 7 -17 66 c-24 92 -78 221 -129 306 -42
72 -140 182 -213 240 -40 31 -40 25 1 -29 53 -71 104 -202 104 -270 0 -39 -16
-22 -34 36 -13 40 -14 41 -15 14 -1 -28 -4 -26 -44 36 -65 101 -102 143 -184
209 -62 50 -235 150 -259 150 -3 0 17 -23 45 -52 28 -29 51 -55 51 -60 0 -4
-24 10 -52 32 -52 39 -208 126 -208 116 0 -3 24 -21 53 -39 104 -68 98 -81
-14 -29 -133 62 -265 108 -354 122 -38 6 -80 13 -92 16 -41 8 -24 -11 32 -35
71 -30 97 -58 34 -36 -90 32 -319 81 -319 68 0 -2 15 -10 33 -18 42 -19 16
-19 -53 0 -67 18 -73 18 -64 4 5 -8 -3 -10 -27 -6 -19 4 -112 16 -207 27 -95
11 -182 25 -194 31 -15 8 -19 8 -13 -1z"/>
</g>
</svg>
