<?xml version="1.0" encoding="UTF-8"?>
<svg version="1.1" xmlns="http://www.w3.org/2000/svg" width="1024" height="1536">
<path d="M0 0 C10.35104272 8.20836112 17.10163034 19.01569456 19.56640625 32.03515625 C19.83332376 35.04200191 19.85216211 38.02813504 19.84487915 41.04553223 C19.85067155 41.91808073 19.85646395 42.79062922 19.86243188 43.68961859 C19.87934989 46.59454951 19.8823013 49.49932078 19.88525391 52.40429688 C19.89455774 54.4941242 19.90472709 56.58394783 19.91569519 58.67376709 C19.94295785 64.33426201 19.95813358 69.99473209 19.97112322 75.65527534 C19.98677006 81.5756731 20.01355535 87.49602026 20.03915405 93.41638184 C20.08591429 104.62170841 20.12267177 115.82704454 20.15582693 127.03241873 C20.19406774 139.79176403 20.2434728 152.55105849 20.29381108 165.31036091 C20.39708999 191.55192165 20.48636357 217.79351507 20.56640625 244.03515625 C21.15591064 243.49101074 21.74541504 242.94686523 22.3527832 242.38623047 C23.14128662 241.66967285 23.92979004 240.95311523 24.7421875 240.21484375 C25.90488159 239.15112549 25.90488159 239.15112549 27.09106445 238.06591797 C30.88383138 234.9543453 35.04539151 232.88956293 39.56640625 231.03515625 C40.89091797 230.48794922 40.89091797 230.48794922 42.2421875 229.9296875 C54.66184858 226.58761654 69.24308899 228.08104108 80.56640625 234.03515625 C83.85516774 236.11097122 86.71609527 238.39576828 89.56640625 241.03515625 C90.1903125 241.58042969 90.81421875 242.12570312 91.45703125 242.6875 C98.61138942 249.29750483 105.09161683 259.02383602 105.68212891 268.98779297 C105.81195447 273.67523464 105.72163929 278.34941813 105.56640625 283.03515625 C106.22640625 283.03515625 106.88640625 283.03515625 107.56640625 283.03515625 C107.90671875 282.16890625 107.90671875 282.16890625 108.25390625 281.28515625 C112.57491552 273.87771178 122.62711562 269.43320137 130.56640625 267.03515625 C144.03526871 263.67927806 157.80334663 266.08775102 169.81640625 272.72265625 C181.0694793 280.03624182 189.58136058 291.03696416 193.078125 304.1015625 C194.17382078 310.68450272 194.34233764 317.37490998 194.56640625 324.03515625 C195.18386719 323.5040625 195.80132813 322.97296875 196.4375 322.42578125 C208.63022943 312.2558943 220.67329579 308.6807272 236.56640625 310.03515625 C248.3718079 312.29864887 260.19790035 318.28116283 267.56640625 328.03515625 C270.12545542 332.26360559 272.42882994 336.57952225 274.56640625 341.03515625 C274.92184163 341.75661614 275.27727701 342.47807604 275.64348316 343.22139835 C276.84371171 346.88059011 276.83958546 350.3342862 276.81364441 354.14122009 C276.81605882 354.95328637 276.81847324 355.76535265 276.82096082 356.602027 C276.82659371 359.32192483 276.81793689 362.04158734 276.80932617 364.76147461 C276.81039937 366.7135118 276.8123386 368.66554867 276.81507874 370.61758423 C276.81993225 375.92701574 276.81225862 381.23636334 276.80212569 386.54578471 C276.79332196 392.12781725 276.7951033 397.70984731 276.79548645 403.29188538 C276.79454883 412.69305819 276.78586295 422.09419882 276.7722168 431.49536133 C276.7566045 442.28928858 276.75121476 453.08318031 276.75195235 463.87711805 C276.75263493 475.43440353 276.74564177 486.9916757 276.73650575 498.54895711 C276.73439759 501.83974145 276.73366769 505.13052357 276.73326683 508.42130852 C276.71596692 581.64052073 273.96646623 648.63940425 231.17056274 711.08666992 C218.67718562 729.37257534 207.85843265 747.78403413 199.56762695 768.38867188 C193.78157064 782.31819374 184.27626861 791.93064319 170.984375 798.7734375 C160.80307758 802.53179072 150.24694238 802.32809067 139.55126953 802.30981445 C137.85647356 802.31416956 136.16167956 802.31935535 134.46688843 802.32530212 C129.89241022 802.33861728 125.31801501 802.3392792 120.74352121 802.33673882 C116.9118118 802.33566404 113.08011883 802.34056538 109.24841297 802.34534425 C100.20221706 802.35641349 91.15606268 802.35689137 82.10986328 802.35083008 C72.80595158 802.34479158 63.50219115 802.35710413 54.19830525 802.37840015 C46.18349949 802.39606478 38.16874168 802.40200987 30.15391719 802.3987624 C25.37882611 802.39695719 20.60384297 802.39950915 15.82876968 802.41347694 C11.33557726 802.42613017 6.84261926 802.42404096 2.34943008 802.41106606 C0.710072 802.40871698 -0.92930298 802.41137434 -2.56864166 802.41968918 C-20.09027505 802.50208237 -34.33637377 799.70185269 -47.68359375 787.59765625 C-53.65061525 781.26899708 -56.95003587 773.89924609 -60.43359375 766.03515625 C-61.16002037 764.40879347 -61.8865869 762.78249317 -62.61328125 761.15625 C-62.98356445 760.32633545 -63.35384766 759.4964209 -63.73535156 758.64135742 C-64.11014648 757.80193604 -64.48494141 756.96251465 -64.87109375 756.09765625 C-65.2484668 755.25243408 -65.62583984 754.40721191 -66.01464844 753.53637695 C-76.69186037 729.78572457 -91.46318828 709.65159881 -108.31103516 689.92211914 C-113.04172562 684.36326418 -117.56118224 678.65135836 -122.015625 672.86962891 C-122.96896539 671.63626119 -123.92739755 670.40681408 -124.890625 669.18115234 C-154.02604436 632.09883594 -166.3973945 590.49040026 -177.34858704 545.41358948 C-179.02038818 538.58515447 -180.83874595 531.80887663 -182.75134277 525.0443573 C-184.36791692 519.3220541 -185.80248696 513.56870685 -187.18359375 507.78515625 C-193.04723216 483.87608736 -200.31254427 460.19969407 -209.5 437.35546875 C-209.77115128 436.68102722 -210.04230255 436.00658569 -210.32167053 435.31170654 C-211.68028722 431.93955333 -213.04923709 428.57210441 -214.43481445 425.2109375 C-214.94222095 423.96744828 -215.44962659 422.72395872 -215.95703125 421.48046875 C-216.40997559 420.38234863 -216.86291992 419.28422852 -217.32958984 418.15283203 C-220.75397513 408.48246491 -221.45838951 394.20854585 -217.93359375 384.47265625 C-213.27095927 375.11478145 -206.40890365 368.2569029 -197.43359375 363.03515625 C-196.72203125 362.60074219 -196.01046875 362.16632813 -195.27734375 361.71875 C-185.50540155 356.78116653 -171.1995493 357.46911307 -160.93359375 360.59765625 C-138.01118768 369.86347391 -126.02795115 387.9932947 -116.40771484 409.73086548 C-113.6320586 416.29670118 -111.44122284 423.07099891 -109.24609375 429.84765625 C-108.72260277 431.43929954 -108.1990836 433.03093356 -107.67553711 434.62255859 C-104.31008157 444.93428109 -101.36368228 455.2705461 -98.95019531 465.84814453 C-95.86728306 483.11468762 -95.86728306 483.11468762 -88.43359375 498.03515625 C-86.7674226 498.07579457 -85.0997128 498.07787725 -83.43359375 498.03515625 C-81.59627131 493.34983228 -81.14886404 489.16601575 -81.18026066 484.19045734 C-81.17716339 483.41524307 -81.17406611 482.64002879 -81.17087498 481.84132317 C-81.1629053 479.24019366 -81.16915873 476.63929385 -81.17530823 474.03816223 C-81.17245378 472.15578826 -81.16871588 470.27341545 -81.16416973 468.3910448 C-81.15417798 463.21529758 -81.15656507 458.03961806 -81.16089666 452.86386573 C-81.16337063 447.28292341 -81.15430741 441.70199898 -81.14651489 436.12106323 C-81.13446348 426.4481914 -81.12936162 416.77533604 -81.1286335 407.10245705 C-81.12730846 393.10507394 -81.1122018 379.10773088 -81.09313833 365.1103619 C-81.06228593 342.38534635 -81.03809729 319.66033158 -81.02026367 296.93530273 C-81.01972688 296.25529529 -81.01919009 295.57528785 -81.01863703 294.87467412 C-81.00614445 279.0126418 -80.99536375 263.15060901 -80.98657227 247.28857422 C-80.9835023 241.78800454 -80.98040996 236.28743488 -80.97729492 230.78686523 C-80.97691311 230.10798454 -80.97653129 229.42910384 -80.97613791 228.729651 C-80.96295469 205.41113905 -80.93827133 182.0926597 -80.90355152 158.77416819 C-80.88326224 144.8132631 -80.87297205 130.8524199 -80.87554073 116.89149996 C-80.87657603 107.32331052 -80.8669351 97.75517 -80.8489017 88.18699763 C-80.83885988 82.66670772 -80.83372524 77.14652602 -80.84166908 71.62623024 C-80.84885877 66.56984272 -80.84224076 61.51366579 -80.82478368 56.45730504 C-80.82090818 54.63092482 -80.82206352 52.80452532 -80.82884056 50.97815356 C-80.89112281 32.74302122 -77.50883504 17.64408086 -64.43359375 4.03515625 C-45.94551853 -12.01736415 -20.39935242 -13.98558223 0 0 Z M-50.43359375 12.03515625 C-51.04589844 12.41800781 -51.65820312 12.80085938 -52.2890625 13.1953125 C-59.30043462 18.2240344 -63.6859465 27.82329692 -65.43359375 36.03515625 C-65.87931182 42.15658623 -65.83724721 48.2648159 -65.81213379 54.39964294 C-65.81542652 56.28531996 -65.82004154 58.17099505 -65.82586145 60.05666596 C-65.83806003 65.22759967 -65.83171337 70.3983692 -65.82235646 75.56930268 C-65.8155556 81.15017709 -65.82609497 86.73102142 -65.8346405 92.31188965 C-65.84720374 101.97980956 -65.84918105 111.64768476 -65.84428406 121.31561089 C-65.83747577 135.3046629 -65.84999383 149.29364748 -65.86779124 163.28268743 C-65.8964386 185.99387723 -65.91399069 208.70505526 -65.92236328 231.41625977 C-65.92274414 232.43519408 -65.92274414 232.43519408 -65.9231327 233.47471293 C-65.92698283 243.80736059 -65.93034352 254.14000839 -65.93359375 264.47265625 C-65.93705935 275.48966482 -65.94070533 286.50667329 -65.94482422 297.52368164 C-65.94507451 298.20245082 -65.94532479 298.88122001 -65.94558267 299.58055795 C-65.95425461 322.8911347 -65.9746535 346.2016829 -66.00430632 369.51224381 C-66.02148834 383.46644624 -66.02807019 397.42057786 -66.02100027 411.37478948 C-66.01682196 420.93499662 -66.02316745 430.4951591 -66.037799 440.05535584 C-66.04585918 445.5714952 -66.04896422 451.08752382 -66.03897667 456.60366249 C-66.02990711 461.65493886 -66.03461736 466.70600943 -66.0501911 471.7572682 C-66.05337698 473.58287 -66.05150886 475.40848922 -66.04402572 477.23407846 C-65.95618449 500.31151212 -65.95618449 500.31151212 -73.43359375 509.03515625 C-78.45578245 512.92991484 -82.45380229 513.67358417 -88.78125 513.421875 C-93.83367882 512.68521748 -97.03657274 510.59544801 -100.46826172 506.76269531 C-106.50508482 498.38463473 -108.69307463 487.13312501 -111.30859375 477.28515625 C-111.82810806 475.37294585 -112.3476304 473.46073754 -112.86785889 471.54872131 C-114.03756156 467.24156809 -115.19365894 462.93075071 -116.34863281 458.61962891 C-127.70605084 412.8373917 -127.70605084 412.8373917 -157.91015625 378.57421875 C-167.01933129 373.81322998 -175.33466609 371.54649809 -185.43359375 374.16015625 C-193.66324097 376.86544735 -198.91566087 381.77908222 -203.43359375 389.03515625 C-208.1412346 403.15807879 -202.24486737 416.83897871 -196.87109375 429.78515625 C-195.44299075 433.31757568 -194.02993704 436.85594806 -192.6171875 440.39453125 C-192.26617477 441.26725677 -191.91516205 442.1399823 -191.55351257 443.03915405 C-186.10621897 456.69911727 -181.59274275 470.71901005 -177.74609375 484.91015625 C-177.47732422 485.88210938 -177.20855469 486.8540625 -176.93164062 487.85546875 C-173.41308875 500.6258898 -170.05036071 513.43258994 -166.82997322 526.28097343 C-166.26270643 528.54268378 -165.69345674 530.80388697 -165.12364197 533.06495667 C-163.50654058 539.48174888 -161.89011138 545.89870174 -160.28149414 552.31762695 C-159.2888033 556.27818424 -158.29155268 560.23757071 -157.291502 564.19627571 C-156.91718067 565.68144836 -156.54444815 567.1670226 -156.1735096 568.65304375 C-152.70762932 582.53254285 -148.96000402 596.35044571 -143.18359375 609.47265625 C-142.79719727 610.35679199 -142.41080078 611.24092773 -142.01269531 612.15185547 C-132.49454508 633.6159404 -119.93588165 652.34662144 -104.86914062 670.3203125 C-102.86995565 672.70845456 -100.90186504 675.1215097 -98.93359375 677.53515625 C-96.43954474 680.59002432 -93.93531422 683.63555699 -91.4140625 686.66796875 C-74.59770749 706.99151852 -60.27832131 728.56069785 -49.921875 752.87890625 C-49.4880249 753.89662109 -49.0541748 754.91433594 -48.60717773 755.96289062 C-47.76328415 757.95942322 -46.93013185 759.96054223 -46.10961914 761.96679688 C-42.93608518 769.52201981 -39.22711019 776.81104688 -32.12109375 781.34765625 C-31.44433594 781.79753906 -30.76757812 782.24742187 -30.0703125 782.7109375 C-20.62000205 787.45709342 -11.85860161 787.47043102 -1.55371094 787.43920898 C0.15064439 787.44491862 1.85499589 787.45188518 3.55934143 787.46000671 C8.169094 787.47789131 12.77865571 787.47677816 17.3884325 787.47106433 C21.2473873 787.46796451 25.10630587 787.474074 28.9652555 787.48010308 C38.07664004 787.49413237 47.1879308 787.49260136 56.29931641 787.48120117 C65.67253599 787.46973189 75.04546905 787.48377926 84.41865087 787.51059765 C92.48862819 787.53281565 100.55851597 787.53937801 108.62852168 787.53352123 C113.43832304 787.53016377 118.24794096 787.53248531 123.05771637 787.54977226 C127.5854214 787.565336 132.11270525 787.56118226 136.64039421 787.54246712 C138.29264945 787.53880663 139.94493656 787.54181467 141.59716225 787.55235291 C153.20945694 787.62070523 166.25067805 787.41463667 175.06640625 778.78515625 C176.195625 777.72554687 176.195625 777.72554687 177.34765625 776.64453125 C182.32192288 770.79451345 185.40300186 764.44602947 188.19140625 757.34765625 C195.63823836 739.26628112 205.210436 723.05403639 216.22167969 706.95385742 C223.68664044 696.02881902 230.97272908 684.9006577 236.75390625 672.97265625 C237.07794434 672.31185059 237.40198242 671.65104492 237.73583984 670.97021484 C249.46411618 646.81424303 256.70691494 621.75178794 259.56640625 595.03515625 C259.64651306 594.29617249 259.72661987 593.55718874 259.80915415 592.79581153 C261.192879 579.82882323 261.95145242 566.95959923 262.17651367 553.92407227 C262.21402518 552.05643749 262.2517957 550.18880791 262.28980541 548.3211832 C262.6812071 528.15320674 262.76809275 507.98371809 262.8046875 487.8125 C262.80875821 485.8590195 262.81287557 483.9055391 262.81703758 481.95205879 C262.83585461 472.81120414 262.85016548 463.67035666 262.85864955 454.5294866 C262.86852402 444.07900095 262.89520186 433.62872129 262.93515044 423.17830843 C262.96531036 415.00325349 262.98011574 406.82825818 262.98343056 398.65314871 C262.98576812 393.80647554 262.99457016 388.96002889 263.01989174 384.11341667 C263.04319547 379.58612638 263.04739671 375.05921232 263.03713036 370.53187752 C263.03663655 368.87993233 263.04291084 367.22796814 263.0566864 365.57608032 C263.16163307 352.24378673 261.3649717 343.07332579 251.86328125 333.16796875 C244.55692043 326.38349084 236.04155487 324.56056656 226.296875 324.7890625 C216.96185472 325.63041626 208.73659049 330.42799375 202.31640625 337.16015625 C194.65402773 347.12765143 193.97935339 356.62954651 193.8425293 368.84545898 C193.8300415 369.85809814 193.81755371 370.8707373 193.8046875 371.9140625 C193.80509033 372.82744385 193.80549316 373.7408252 193.8059082 374.68188477 C193.56640625 377.03515625 193.56640625 377.03515625 191.56640625 380.03515625 C186.05507205 381.36854356 186.05507205 381.36854356 183.56640625 381.03515625 C180.67131194 378.8244419 179.66476671 377.64147857 179.07434082 374.00192261 C179.07752319 372.81518951 179.08070557 371.62845642 179.08398438 370.40576172 C179.08007187 369.74824417 179.07615936 369.09072662 179.0721283 368.4132843 C179.06616186 366.98865592 179.06930803 365.56396648 179.08055115 364.13936996 C179.09785807 361.87594972 179.09027984 359.61380213 179.07629395 357.35037231 C179.04668064 351.72498831 179.05977222 346.09984812 179.07147217 340.47442627 C179.07972051 335.72565042 179.0715409 330.97743063 179.04234314 326.22873306 C179.03531234 324.01401193 179.05185121 321.800304 179.06945801 319.58566284 C179.06628683 306.62978579 176.15300298 298.74761532 167.15234375 289.390625 C163.83350833 286.36757702 160.8117498 284.44450655 156.56640625 283.03515625 C155.94378906 282.81472656 155.32117188 282.59429688 154.6796875 282.3671875 C145.77647286 279.67635792 136.02706967 280.17446518 127.56640625 284.03515625 C117.85526126 289.9749828 110.83166417 299.03359932 108.03637695 310.14135742 C107.42140202 313.92800565 107.35226188 317.68515449 107.28515625 321.51171875 C107.26674683 322.31878265 107.2483374 323.12584656 107.22937012 323.95736694 C107.15099916 327.39657891 107.08287143 330.83597416 107.01416016 334.27539062 C106.96240833 336.791764 106.90518917 339.30797199 106.84765625 341.82421875 C106.83408081 342.60237946 106.82050537 343.38054016 106.80651855 344.18228149 C106.73282546 347.37554551 106.58309341 349.98509476 105.56640625 353.03515625 C104.15486526 353.31263867 102.73660826 353.55609141 101.31640625 353.78515625 C100.5275 353.924375 99.73859375 354.06359375 98.92578125 354.20703125 C96.56640625 354.03515625 96.56640625 354.03515625 94.44909668 352.48365784 C91.96839105 349.25741758 92.01977901 346.59332507 92.08398438 342.68725586 C92.08007187 341.95331604 92.07615936 341.21937622 92.0721283 340.4631958 C92.06615791 338.8715952 92.0693151 337.27993998 92.08055115 335.68836784 C92.09784381 333.1600776 92.09028657 330.63292811 92.07629395 328.10462952 C92.04666629 321.8202207 92.05977218 315.53602966 92.07147217 309.25158691 C92.07971923 303.94789071 92.07154424 298.64469246 92.04234314 293.34106636 C92.03531006 290.86661371 92.05185547 288.39306707 92.06945801 285.91868591 C92.06720936 272.33520712 89.32664857 262.43883574 80.01171875 252.3515625 C72.54881759 245.19217646 63.41156387 243.43105623 53.34790039 243.5625 C47.63102626 243.81436277 43.35469684 244.95834302 38.56640625 248.03515625 C37.54160156 248.65390625 37.54160156 248.65390625 36.49609375 249.28515625 C26.57507302 255.92431841 22.17441931 265.70386394 19.56640625 277.03515625 C19.08578447 281.37499961 19.0529495 285.64879369 19.09765625 290.01171875 C19.09060669 291.18479584 19.08355713 292.35787292 19.07629395 293.5664978 C19.05446288 297.26461301 19.05722728 300.96199631 19.06640625 304.66015625 C19.07841857 309.56939999 19.06490017 314.47757032 19.03515625 319.38671875 C19.05213562 321.07409653 19.05213562 321.07409653 19.06945801 322.79556274 C19.06265015 323.83449677 19.05584229 324.87343079 19.04882812 325.94384766 C19.0520105 326.85727936 19.05519287 327.77071106 19.05847168 328.71182251 C18.56640625 331.03515625 18.56640625 331.03515625 16.76281738 332.86117554 C13.43970925 334.63737526 11.12485317 333.95771656 7.56640625 333.03515625 C5.38195528 329.75847979 5.31733601 328.83929203 5.32145309 325.04555607 C5.3176878 324.00893143 5.3139225 322.97230679 5.3100431 321.90426928 C5.31908428 320.19040133 5.31908428 320.19040133 5.32830811 318.44190979 C5.3267491 317.2309147 5.32519009 316.01991961 5.32358384 314.7722277 C5.3211338 311.40441977 5.32761394 308.03683702 5.3376863 304.66905701 C5.34631753 301.03898887 5.34335368 297.40892968 5.34153748 293.77885437 C5.33972438 287.48467783 5.34452917 281.19053459 5.35314178 274.89636421 C5.36618029 264.94154296 5.35862379 254.98678686 5.34771729 245.03196716 C5.34423887 241.62572966 5.34089384 238.21949203 5.33758926 234.81325436 C5.33675793 233.96191364 5.33592659 233.11057293 5.33507006 232.23343401 C5.32588286 222.53851799 5.3209358 212.8436014 5.31787109 203.14868164 C5.31758534 202.26232267 5.3172996 201.3759637 5.31700519 200.46274536 C5.31290528 186.11533715 5.3241137 171.7679706 5.3392466 157.42057169 C5.35423154 142.68500908 5.34620502 127.94957215 5.3186295 113.21402782 C5.3024827 104.12909577 5.30511672 95.04456012 5.33210263 85.959652 C5.34903472 79.72635576 5.34409559 73.49331525 5.32221833 67.2600354 C5.31029423 63.66748571 5.30796147 60.07562361 5.33209801 56.48311996 C5.35809649 52.57883695 5.33729505 48.67556236 5.31243896 44.77125549 C5.3273893 43.64875336 5.34233964 42.52625122 5.35774302 41.36973387 C5.22092931 31.15329997 1.2471876 22.0246177 -5.73046875 14.49609375 C-8.95213272 11.73255631 -12.59944284 9.81553589 -16.43359375 8.03515625 C-17.18382812 7.67035156 -17.9340625 7.30554688 -18.70703125 6.9296875 C-29.71682796 3.31759087 -41.03033835 5.78131653 -50.43359375 12.03515625 Z " fill="#C8AA62" transform="translate(490.43359375,386.96484375)"/>
<path d="M0 0 C2.96364952 2.62492006 5.77635456 5.39481765 8.59375 8.17578125 C9.4909375 8.98917969 10.388125 9.80257812 11.3125 10.640625 C33.91091205 31.71299486 50.12078248 66.16556622 51.80004883 96.95874023 C51.92174903 101.09381084 51.92716127 105.22678617 51.90625 109.36328125 C51.90475952 110.09189362 51.90326904 110.82050598 51.9017334 111.57119751 C51.86193488 122.38852506 51.32571403 132.65830597 48.59375 143.17578125 C48.15869141 144.98755859 48.15869141 144.98755859 47.71484375 146.8359375 C45.56686175 155.09533272 42.37007535 162.54445711 38.59375 170.17578125 C37.98773407 171.46788428 37.38363962 172.76088988 36.78125 174.0546875 C28.42845215 191.72234079 15.22833118 211.40420819 -1.40625 222.17578125 C-4.09375 221.98828125 -4.09375 221.98828125 -6.40625 221.17578125 C-8.03094216 217.92639694 -8.08066717 214.6779451 -7.40625 211.17578125 C-5.45395299 208.86546112 -3.85972438 207.31316211 -1.53125 205.48828125 C22.28576705 185.11953011 35.08064063 153.80611789 38.59375 123.17578125 C38.86848891 118.77504092 38.92867879 114.39681982 38.90625 109.98828125 C38.90061035 108.81209229 38.8949707 107.63590332 38.88916016 106.42407227 C38.41744397 72.29003495 24.19983942 40.48527053 -0.11816406 16.48632812 C-26.76540471 -8.75537563 -60.9658108 -20.00455202 -97.29296875 -19.2421875 C-112.09164652 -18.6071285 -126.95304728 -15.0412291 -140.40625 -8.82421875 C-141.01984375 -8.54739258 -141.6334375 -8.27056641 -142.265625 -7.98535156 C-170.99371219 5.09214876 -190.99522404 26.40055358 -205.40625 54.17578125 C-205.89867187 55.11808594 -206.39109375 56.06039062 -206.8984375 57.03125 C-209.50068993 62.37314085 -211.37166347 67.87687279 -213.09375 73.55078125 C-213.29645508 74.21005615 -213.49916016 74.86933105 -213.70800781 75.54858398 C-223.14227798 108.21809131 -217.77125337 145.47321849 -201.45581055 175.07617188 C-195.72937814 185.03804997 -188.51610769 195.19776189 -179.6640625 202.640625 C-177.86894541 204.83155984 -178.04030887 206.44700992 -178.09375 209.23828125 C-178.09761719 210.11613281 -178.10148437 210.99398437 -178.10546875 211.8984375 C-178.40625 214.17578125 -178.40625 214.17578125 -180.40625 216.17578125 C-186.20769702 215.90368658 -188.92103214 212.15077479 -192.72265625 208.1796875 C-221.46321867 176.53688158 -232.46353982 138.11200354 -230.66503906 96.12744141 C-230.05853233 86.86619805 -228.11067142 78.03428779 -225.40625 69.17578125 C-225.06932129 68.06662354 -225.06932129 68.06662354 -224.72558594 66.93505859 C-216.21987983 40.02508448 -198.86755789 15.16458842 -176.40625 -1.82421875 C-175.37113281 -2.62472656 -174.33601563 -3.42523438 -173.26953125 -4.25 C-122.44729564 -42.67236026 -48.83080196 -41.56153878 0 0 Z " fill="#C8AB63" transform="translate(552.40625,259.82421875)"/>
<path d="M0 0 C20.07161771 14.84098416 35.76342992 35.23980891 39.91064453 60.48193359 C42.73925744 83.65460905 37.86287185 106.59129145 26.1875 126.75 C25.5275 127.08 24.8675 127.41 24.1875 127.75 C20.42010543 115.55081758 21.01396469 108.64935449 25.1875 96.75 C30.73520515 80.07640267 27.47887398 57.42027492 20.1875 41.75 C9.98075754 21.94587283 -5.80899504 8.72642921 -26.8125 1.75 C-27.77285156 1.42773438 -28.73320312 1.10546875 -29.72265625 0.7734375 C-50.50203375 -5.08530662 -72.47757137 -1.53573578 -91.17578125 8.60546875 C-96.17766079 11.46535472 -100.56062699 14.87095914 -104.8125 18.75 C-105.72515625 19.52537109 -105.72515625 19.52537109 -106.65625 20.31640625 C-115.64406456 28.46671991 -121.97042525 40.38951231 -125.8125 51.75 C-126.13089844 52.66007812 -126.44929688 53.57015625 -126.77734375 54.5078125 C-128.96692543 62.07549112 -129.12032582 69.53743822 -129.1875 77.375 C-129.20143799 78.42389404 -129.21537598 79.47278809 -129.22973633 80.5534668 C-129.19124387 86.92271834 -128.24225687 92.277145 -126.40893555 98.36230469 C-125.10561842 103.57984112 -127.17942124 108.20235199 -128.875 113.125 C-129.23722656 114.18460938 -129.59945313 115.24421875 -129.97265625 116.3359375 C-130.24980469 117.13257813 -130.52695312 117.92921875 -130.8125 118.75 C-134.05947329 117.12651335 -134.56309941 113.68727566 -135.75 110.4375 C-136.00201172 109.77943359 -136.25402344 109.12136719 -136.51367188 108.44335938 C-140.45338972 97.83332642 -142.35390577 87.83059982 -142.25 76.5 C-142.24097656 75.31486816 -142.23195313 74.12973633 -142.22265625 72.90869141 C-141.76472566 49.6400934 -131.93090684 28.29362174 -115.9375 11.4375 C-84.61325737 -17.82757927 -36.39292527 -24.26195018 0 0 Z " fill="#C9AC65" transform="translate(513.8125,294.25)"/>
<path d="M0 0 C0.33 0 0.66 0 1 0 C1.38133299 1.9914056 1.71325582 3.99279077 2 6 C1.67 6.33 1.34 6.66 1 7 C0.87736612 8.56448383 0.82220478 10.13432772 0.79467773 11.70336914 C0.77473251 12.70433121 0.75478729 13.70529327 0.73423767 14.73658752 C0.71752518 15.8251152 0.70081268 16.91364288 0.68359375 18.03515625 C0.66281265 19.14354355 0.64203156 20.25193085 0.62062073 21.39390564 C0.55500377 24.95003808 0.49618404 28.50624703 0.4375 32.0625 C0.39432632 34.46680493 0.35071242 36.87110199 0.30664062 39.27539062 C0.19931008 45.18351185 0.09756669 51.09170991 0 57 C-0.33 57 -0.66 57 -1 57 C-1.02536342 49.68596131 -1.04287256 42.37193397 -1.05493164 35.05786133 C-1.05995913 32.56990129 -1.06678202 30.0819442 -1.07543945 27.59399414 C-1.08757426 24.01708243 -1.09324419 20.4402098 -1.09765625 16.86328125 C-1.10281754 15.75165115 -1.10797882 14.64002106 -1.11329651 13.4947052 C-1.11337204 12.45400375 -1.11344757 11.41330231 -1.11352539 10.34106445 C-1.115746 9.4283931 -1.11796661 8.51572174 -1.12025452 7.57539368 C-0.9980703 4.95867313 -0.58046788 2.55100026 0 0 Z " fill="#E6D9B9" transform="translate(511,659)"/>
<path d="M0 0 C0.33 0 0.66 0 1 0 C1 3.3 1 6.6 1 10 C0.01 10 -0.98 10 -2 10 C-1.34 6.7 -0.68 3.4 0 0 Z " fill="#CCB26C" transform="translate(373,464)"/>
<path d="M0 0 C0.66 0.99 1.32 1.98 2 3 C-0.31 5.31 -2.62 7.62 -5 10 C-5.66 9.67 -6.32 9.34 -7 9 C-6.57847656 8.51789063 -6.15695312 8.03578125 -5.72265625 7.5390625 C-5.17480469 6.90742187 -4.62695312 6.27578125 -4.0625 5.625 C-3.51722656 4.99851562 -2.97195313 4.37203125 -2.41015625 3.7265625 C-0.93041376 2.04367666 -0.93041376 2.04367666 0 0 Z " fill="#CCB172" transform="translate(673,1155)"/>
</svg>
