<?xml version="1.0" standalone="no"?>
<!DOCTYPE svg PUBLIC "-//W3C//DTD SVG 20010904//EN"
 "http://www.w3.org/TR/2001/REC-SVG-20010904/DTD/svg10.dtd">
<svg version="1.0" xmlns="http://www.w3.org/2000/svg"
 width="1254.000000pt" height="1254.000000pt" viewBox="0 0 1254.000000 1254.000000"
 preserveAspectRatio="xMidYMid meet">

<g transform="translate(0.000000,1254.000000) scale(0.100000,-0.100000)"
fill="#000000" stroke="none">
<path d="M5902 11315 c-417 -42 -806 -184 -1115 -407 -38 -27 -70 -48 -71 -46
-2 2 -15 24 -30 50 -15 26 -44 63 -64 82 -185 172 -223 204 -283 233 -151 75
-317 83 -467 23 -46 -19 -107 -48 -135 -66 -29 -18 -114 -66 -189 -107 -109
-59 -148 -75 -193 -80 -105 -11 -217 -83 -260 -167 -27 -54 -43 -144 -27 -154
7 -4 11 11 10 42 0 121 124 248 263 267 l44 6 -40 -32 c-98 -81 -180 -191
-216 -291 -24 -64 -34 -71 -43 -32 -4 15 -9 24 -12 21 -4 -3 0 -23 7 -44 7
-21 11 -72 10 -116 -2 -51 3 -96 15 -135 10 -31 18 -59 18 -62 1 -3 5 -10 9
-17 9 -15 -22 -33 -58 -33 -62 0 -147 70 -187 154 -16 35 -18 36 -13 11 8 -36
49 -99 83 -126 14 -11 23 -21 21 -22 -2 -2 -15 -9 -29 -15 -14 -7 -16 -10 -5
-7 51 16 78 18 71 7 -4 -8 0 -12 11 -12 10 0 -13 -16 -50 -35 -126 -63 -246
-174 -298 -277 -28 -54 -34 -42 -10 21 36 97 130 207 237 279 11 7 3 5 -16 -4
-49 -24 -146 -119 -190 -186 -47 -72 -77 -183 -85 -313 -3 -55 -15 -141 -27
-192 -16 -72 -19 -104 -12 -150 l8 -58 6 70 c6 62 22 132 38 159 3 5 13 -12
22 -38 14 -34 18 -75 18 -163 -1 -180 43 -323 131 -425 39 -46 192 -150 246
-168 39 -13 41 -18 21 -46 -14 -18 -15 -18 -48 11 l-33 30 32 -35 32 -35 -52
-68 c-63 -81 -82 -95 -167 -125 -61 -22 -62 -23 -20 -17 24 3 63 14 87 25 24
10 43 15 43 10 0 -5 -4 -12 -10 -15 -5 -3 -10 -14 -10 -23 0 -10 6 -5 16 13
15 29 61 74 77 75 13 0 -56 -91 -81 -108 -13 -8 -36 -40 -52 -71 -58 -117 -85
-253 -69 -354 10 -63 52 -158 77 -180 9 -6 4 8 -10 33 -96 166 -68 391 69 560
26 33 49 57 51 56 2 -2 -10 -42 -27 -89 -43 -123 -69 -345 -41 -362 6 -4 10
19 10 62 0 75 19 178 48 263 24 70 98 216 113 226 9 5 10 2 5 -12 -4 -10 -19
-62 -34 -114 -22 -81 -26 -121 -29 -275 -9 -375 -7 -469 10 -515 3 -8 11 -33
18 -55 30 -100 126 -247 191 -294 26 -20 23 -13 -18 30 -28 30 -63 75 -78 102
-30 51 -80 186 -73 194 3 2 15 -1 27 -7 12 -6 24 -10 26 -7 3 2 -9 10 -25 17
-22 9 -32 21 -36 44 -6 36 -9 121 -6 186 l1 45 45 -83 c43 -80 123 -187 133
-177 3 2 -11 29 -30 58 -83 124 -135 267 -124 340 4 23 29 114 57 202 28 88
56 177 62 198 6 20 16 36 21 34 6 -2 21 -26 34 -53 14 -27 40 -67 58 -90 29
-36 37 -40 65 -36 l32 5 -26 11 c-28 12 -115 106 -98 106 5 0 25 -9 43 -19 18
-11 52 -25 75 -32 23 -6 40 -16 37 -20 -3 -5 -7 -17 -9 -26 -17 -70 -25 -94
-47 -138 -47 -92 -105 -307 -79 -291 6 4 11 15 11 24 0 45 57 221 83 256 15
21 -6 -130 -42 -294 -11 -52 -21 -114 -21 -137 0 -53 -17 -56 -25 -5 -10 63
-13 68 -14 36 0 -17 5 -50 13 -72 9 -24 14 -80 14 -143 1 -222 74 -438 221
-654 87 -128 191 -230 314 -310 51 -33 27 -8 -33 34 -66 46 -195 169 -187 178
3 3 25 -8 49 -24 51 -35 81 -51 53 -29 -89 71 -164 141 -176 164 -8 15 -28 47
-45 72 -61 86 -125 275 -144 420 -11 87 -10 307 1 280 4 -8 12 -49 18 -90 18
-128 27 -163 61 -240 71 -165 163 -306 296 -454 48 -54 114 -173 114 -207 0
-5 18 -38 39 -73 22 -35 37 -67 34 -70 -4 -3 -2 -6 3 -6 5 0 18 -15 29 -32 10
-18 35 -55 56 -83 21 -29 48 -86 64 -135 30 -92 80 -210 90 -210 3 0 -3 17
-14 38 -24 47 -83 214 -77 219 2 2 22 -20 45 -49 23 -29 56 -71 73 -93 92
-116 232 -198 387 -224 53 -9 102 -20 109 -24 6 -5 12 -4 12 1 0 5 51 17 113
26 61 9 121 20 132 23 20 6 20 5 1 -16 -11 -12 -34 -28 -51 -36 -16 -8 -54
-34 -83 -58 -34 -28 -78 -52 -123 -66 -65 -22 -74 -23 -150 -11 -145 23 -277
107 -335 215 -10 19 -22 35 -26 35 -16 0 54 -99 101 -143 54 -51 119 -87 200
-111 66 -20 221 -22 240 -3 10 10 11 8 5 -8 -4 -11 -12 -27 -18 -35 -5 -8 3
-3 20 13 31 28 89 39 82 15 -5 -15 -107 -87 -124 -87 -15 -1 -86 -94 -114
-151 -14 -27 -24 -70 -27 -110 -3 -41 -13 -81 -28 -110 -13 -25 -26 -63 -30
-85 -5 -30 0 -23 19 30 14 39 26 71 26 73 0 2 4 1 8 -2 4 -3 13 8 19 25 8 20
8 27 1 23 -8 -5 -9 10 -5 48 6 65 52 162 98 208 38 38 107 85 114 78 3 -3 -6
-25 -20 -50 -43 -78 -82 -182 -89 -242 -5 -40 -18 -74 -39 -107 -18 -27 -35
-49 -38 -49 -4 0 -10 12 -13 26 -4 15 -9 24 -12 22 -2 -3 1 -20 7 -38 9 -25 9
-37 0 -52 -26 -41 -52 -125 -61 -191 -7 -61 -5 -83 21 -185 16 -63 34 -122 39
-131 12 -18 4 26 -12 68 -14 38 -3 35 26 -9 14 -22 29 -40 32 -40 3 0 -4 15
-16 32 -83 125 -89 239 -20 384 l31 65 22 -32 c12 -18 29 -35 37 -37 10 -3 8
3 -7 19 -29 33 -38 72 -19 88 16 13 18 9 31 -59 13 -65 99 -200 128 -200 5 0
-8 19 -30 43 -44 48 -78 127 -89 207 -6 47 -5 53 22 82 16 16 72 62 124 100
52 39 107 82 123 96 15 14 27 22 27 18 0 -21 -126 -198 -175 -246 -67 -66 -74
-92 -7 -29 26 25 76 70 112 101 36 31 73 71 83 89 18 33 18 33 -15 -5 -18 -22
-40 -49 -50 -60 -32 -41 -26 -10 10 46 20 31 50 80 65 109 34 61 45 58 23 -7
-8 -25 -13 -50 -11 -55 7 -11 -46 -230 -85 -354 -72 -226 -267 -678 -269 -623
-1 15 -6 30 -12 33 -7 5 -9 -6 -4 -36 5 -38 1 -54 -30 -117 -25 -49 -48 -80
-73 -97 -37 -25 -38 -34 -1 -15 10 6 19 8 19 4 0 -4 -28 -59 -61 -123 -73
-137 -179 -308 -298 -481 -191 -277 -270 -414 -366 -635 -130 -297 -206 -564
-269 -940 -79 -475 -98 -1067 -47 -1500 17 -141 70 -497 87 -582 2 -13 6 -34
9 -48 l5 -25 2690 0 2690 0 0 154 c0 271 -46 465 -174 731 -85 175 -166 311
-362 602 -213 316 -454 651 -899 1248 -346 464 -364 490 -436 641 -59 120 -70
136 -165 234 -56 58 -111 125 -124 149 -46 92 -62 253 -39 404 15 99 149 546
208 692 27 66 105 238 175 382 69 144 126 266 126 270 0 20 95 162 138 206 26
27 70 60 97 75 75 39 223 42 465 8 395 -55 504 -59 635 -26 210 54 308 240
245 468 -35 125 -23 191 44 250 20 17 41 32 46 32 18 0 40 59 40 108 0 51 -28
106 -72 141 -20 16 -19 17 30 48 66 41 104 99 110 167 4 48 1 56 -28 89 -34
39 -60 109 -60 163 0 47 43 91 134 138 144 74 203 150 194 247 -7 65 -22 85
-151 194 -142 121 -298 294 -366 405 -26 43 -26 50 -3 50 25 1 65 25 68 42 1
12 -8 14 -45 10 -61 -6 -77 10 -87 85 -9 73 7 171 46 291 30 92 38 159 21 178
-4 5 -14 50 -20 99 -19 140 -71 339 -132 502 l-31 81 27 68 c60 150 64 259 14
410 -23 69 -42 106 -71 139 -41 46 -34 59 14 27 58 -38 95 -108 108 -206 l7
-61 2 55 c2 94 -75 222 -148 245 -18 5 -19 8 -5 40 8 19 14 49 13 67 0 26 -3
20 -13 -24 -14 -67 -18 -72 -43 -60 -10 5 -37 18 -60 28 l-42 19 28 40 c15 22
39 46 55 53 24 12 30 12 47 -4 10 -9 19 -12 19 -6 0 11 -52 52 -67 52 -4 0 -2
-4 5 -9 10 -6 4 -14 -22 -29 -20 -12 -36 -18 -36 -14 0 14 -107 122 -121 122
-8 -1 -2 -8 14 -16 15 -8 27 -21 27 -29 0 -7 2 -20 5 -27 4 -10 -4 -14 -29
-15 -31 -1 -36 3 -41 28 -4 16 -4 33 -1 38 4 5 3 11 -1 13 -14 5 -71 131 -87
189 -31 112 -129 226 -251 294 -129 73 -478 167 -700 191 -38 4 -131 27 -205
51 -74 24 -175 50 -225 58 -271 43 -705 56 -973 30z m929 -40 c104 -17 267
-59 281 -73 15 -15 -101 5 -245 42 -77 20 -149 36 -162 36 -13 0 -27 5 -30 11
-5 7 4 8 27 5 18 -3 76 -12 129 -21z m-2591 -44 c64 -24 164 -80 157 -88 -3
-2 -15 0 -26 6 -44 24 -220 63 -307 68 -81 5 -190 -6 -241 -24 -14 -5 -15 -3
-6 7 6 7 51 23 100 36 110 30 237 28 323 -5z m3447 -182 c58 -22 185 -97 197
-118 12 -18 0 -13 -71 31 -38 22 -99 56 -138 74 -80 37 -73 44 12 13z m164
-10 c202 -66 336 -181 389 -334 10 -30 17 -55 16 -55 -2 0 -21 16 -42 36 -22
20 -65 54 -97 76 -32 22 -77 61 -100 86 -73 80 -108 113 -180 163 -39 27 -66
49 -60 49 5 0 39 -9 74 -21z m-4339 -63 c-33 -36 -68 -78 -78 -95 -24 -40 -35
-40 -21 1 13 36 126 158 146 158 8 0 -14 -29 -47 -64z m-47 24 c-3 -5 -14 -10
-23 -10 -15 0 -15 2 -2 10 20 13 33 13 25 0z m-25 -29 c0 -4 -9 -20 -20 -34
-23 -29 -61 -124 -97 -242 -13 -44 -33 -97 -44 -118 -12 -21 -19 -41 -16 -43
3 -3 8 4 12 15 13 43 20 18 17 -61 -2 -46 -6 -84 -7 -86 -11 -12 -45 23 -46
46 -1 17 -3 20 -6 10 -6 -26 -14 -22 -47 20 -27 35 -28 41 -23 117 6 98 45
188 112 261 25 26 45 51 45 54 0 3 19 20 42 38 40 30 78 42 78 23z m-300 -508
c11 -27 35 -65 51 -86 30 -37 30 -39 13 -58 -32 -35 -51 -21 -81 61 -12 33
-18 130 -8 130 2 0 13 -21 25 -47z m5330 -95 c-1 -29 -25 -74 -33 -61 -3 5 -2
15 4 23 5 8 9 25 9 38 0 12 5 22 10 22 6 0 10 -10 10 -22z m-5447 -240 c-57
-73 -132 -156 -233 -259 -41 -41 -91 -101 -110 -132 -19 -31 -38 -57 -42 -57
-4 0 -4 17 -2 38 26 182 154 346 351 447 82 42 91 33 36 -37z m90 29 c-40 -33
-90 -67 -98 -67 -11 0 46 63 69 76 11 7 29 12 39 13 15 1 13 -4 -10 -22z
m5438 -9 c7 -13 16 -36 20 -53 7 -29 7 -29 8 8 1 45 10 42 52 -20 l32 -46 -18
-52 c-9 -29 -28 -66 -41 -81 l-23 -29 -1 78 c0 64 -5 89 -30 144 -34 74 -33
73 -20 73 5 0 15 -10 21 -22z m143 -202 c20 -68 20 -112 1 -217 -18 -96 -34
-149 -43 -148 -4 0 -28 42 -54 93 l-47 93 14 47 c8 25 27 63 43 83 17 21 36
55 43 75 7 20 16 35 20 32 4 -2 15 -29 23 -58z m-167 -51 c-2 -26 -7 -49 -11
-52 -13 -13 -17 7 -11 51 9 61 29 61 22 1z m-5765 -162 c-28 -53 -72 -189 -72
-218 0 -38 -18 -30 -29 13 -20 68 -13 89 67 201 48 68 67 70 34 4z m-25 -257
c-1 -52 -5 -92 -8 -90 -4 2 -12 17 -19 34 -11 26 -10 40 5 91 10 32 19 59 21
59 1 0 2 -42 1 -94z m-15 -108 c9 -18 23 -63 32 -101 9 -37 42 -120 73 -184
44 -89 72 -131 120 -181 35 -36 61 -67 59 -69 -10 -10 -56 24 -72 53 -21 38
-29 39 -15 1 l10 -26 -35 21 c-19 11 -50 39 -69 61 -40 47 -97 155 -89 168 3
5 -4 22 -16 38 -27 39 -43 130 -35 203 4 32 10 56 13 54 4 -2 14 -19 24 -38z
m324 -736 c-15 -29 -53 -68 -60 -61 -6 6 57 88 67 89 4 0 1 -12 -7 -28z m937
-1977 c20 -41 32 -75 27 -75 -13 0 -35 36 -59 98 -31 77 -11 63 32 -23z m101
-68 c49 -75 237 -279 301 -328 31 -23 53 -44 51 -46 -7 -8 -125 58 -194 109
-36 26 -82 68 -103 93 -37 45 -66 116 -55 134 3 5 -1 11 -9 15 -12 4 -45 66
-45 83 0 12 24 -14 54 -60z m-34 -71 c-1 -6 -10 0 -20 13 -11 13 -20 28 -20
35 1 6 10 0 20 -13 11 -13 20 -28 20 -35z m237 -270 c58 -41 224 -126 246
-126 9 0 50 -11 91 -24 41 -13 87 -22 103 -20 23 4 25 3 8 -5 -18 -8 -16 -10
15 -20 32 -10 30 -11 -27 -7 -35 2 -63 0 -63 -4 0 -12 -91 -2 -156 16 -56 15
-114 51 -173 107 -43 41 -106 117 -97 117 3 0 27 -15 53 -34z m813 -206 c-11
-21 -71 -70 -86 -70 -4 0 12 20 36 45 47 47 68 58 50 25z m0 -50 c0 -12 -71
-64 -124 -92 -62 -32 -38 1 40 54 72 49 84 54 84 38z m-164 -29 c-7 -10 -86
-53 -86 -46 0 6 73 54 83 54 5 1 6 -3 3 -8z m-51 -74 c-10 -17 -28 -26 -50
-29 -19 -2 -35 -2 -35 2 0 6 94 59 98 55 2 -2 -4 -14 -13 -28z m195 8 c0 -15
-47 -101 -83 -154 -45 -63 -263 -301 -277 -301 -11 0 11 82 38 142 12 28 55
83 104 134 46 47 85 91 87 97 4 13 -35 -22 -106 -93 l-45 -45 28 53 c27 52 72
87 124 97 10 2 39 20 65 39 43 33 65 44 65 31z m-167 -59 c-15 -13 -30 -22
-32 -20 -7 7 31 44 46 44 8 0 2 -10 -14 -24z"/>
<path d="M2931 8014 c0 -11 3 -14 6 -6 3 7 2 16 -1 19 -3 4 -6 -2 -5 -13z"/>
<path d="M3321 7874 c0 -11 3 -14 6 -6 3 7 2 16 -1 19 -3 4 -6 -2 -5 -13z"/>
<path d="M2970 7757 c0 -2 15 -16 33 -33 l32 -29 -29 33 c-28 30 -36 37 -36
29z"/>
<path d="M4768 5973 c7 -3 16 -2 19 1 4 3 -2 6 -13 5 -11 0 -14 -3 -6 -6z"/>
<path d="M4711 5174 c0 -11 3 -14 6 -6 3 7 2 16 -1 19 -3 4 -6 -2 -5 -13z"/>
</g>
</svg>
